<svg xmlns="http://www.w3.org/2000/svg" width="50" height="50" version="1.0" preserveAspectRatio="xMidYMid meet" viewBox="1.08 1 1022.83 875.98">
<metadata>
Created by potrace 1.16, written by Peter Selinger 2001-2019
</metadata>
<g transform="translate(0.000000,877.000000) scale(0.100000,-0.100000)" fill="#000000" stroke="#000000">
<path d="M406 8738 c4 -13 31 -69 60 -125 52 -98 66 -154 44 -168 -16 -10 -132 31 -249 87 -57 27 -105 47 -107 45 -10 -10 18 -112 46 -167 34 -67 151 -197 240 -265 89 -69 226 -156 373 -240 75 -42 140 -81 142 -85 15 -23 -287 21 -480 70 -120 31 -381 110 -451 137 -21 8 -17 -26 12 -109 89 -252 316 -503 689 -763 61 -42 111 -80 113 -85 5 -14 -85 -23 -182 -17 -112 6 -218 36 -434 124 -90 36 -165 63 -167 61 -9 -8 43 -146 82 -220 47 -91 171 -219 263 -272 86 -51 212 -102 318 -130 75 -20 87 -26 90 -46 7 -44 -20 -110 -64 -159 -80 -89 -180 -138 -419 -207 -72 -21 -134 -41 -139 -45 -33 -28 539 -33 699 -5 155 26 232 35 428 46 268 16 349 27 482 65 172 50 378 69 468 44 29 -8 37 -15 37 -33 0 -35 -36 -74 -99 -105 -86 -44 -117 -50 -401 -76 -569 -53 -870 -93 -870 -115 0 -12 119 -57 185 -69 32 -6 111 -11 174 -11 105 0 154 8 521 81 223 44 441 92 485 106 44 14 112 27 151 30 64 5 74 3 93 -16 18 -18 19 -25 10 -42 -28 -54 -307 -137 -545 -164 -141 -15 -244 -39 -319 -71 l-40 -18 55 -8 c69 -9 248 4 494 38 163 22 212 25 336 20 169 -7 240 -15 240 -27 0 -20 -77 -92 -123 -116 -117 -59 -387 -99 -620 -91 -111 3 -125 -2 -89 -35 73 -67 194 -69 672 -15 215 25 443 30 478 10 32 -19 28 -34 -26 -84 -45 -42 -57 -47 -161 -72 -63 -15 -195 -40 -295 -56 -260 -42 -288 -49 -284 -68 2 -10 26 -25 58 -37 51 -18 82 -20 385 -21 182 -1 334 -2 339 -3 24 -4 -33 -41 -156 -101 -114 -56 -209 -95 -367 -152 -23 -8 -22 -9 20 -43 108 -86 261 -143 405 -152 88 -6 278 11 303 27 10 6 8 16 -7 46 -132 260 -151 634 -46 926 129 359 418 670 802 862 150 75 453 176 530 176 13 0 22 4 20 9 -1 5 -84 63 -183 129 -99 66 -229 160 -290 208 -340 272 -818 594 -1125 757 -264 141 -395 186 -1102 382 -760 211 -1045 294 -1291 376 -115 38 -211 69 -214 69 -2 0 -1 -10 3 -22z m721 -354 c104 -30 373 -105 598 -165 504 -135 628 -170 773 -221 111 -38 232 -92 232 -104 0 -18 -500 48 -566 75 -12 5 -25 25 -32 49 -7 22 -19 45 -26 51 -12 10 -19 5 -38 -29 -21 -39 -25 -41 -58 -36 -46 7 -306 79 -394 109 -68 23 -70 24 -80 67 -14 54 -31 61 -53 21 -10 -17 -22 -31 -28 -31 -27 -1 -328 126 -332 139 -2 9 -9 27 -15 41 l-10 25 -20 -24 -19 -25 -87 43 c-88 43 -249 138 -257 151 -2 4 47 -12 110 -37 63 -24 199 -68 302 -99z m-444 -183 c396 -158 1354 -467 1650 -532 32 -7 60 -16 62 -19 13 -21 -373 -22 -401 -1 -5 3 -18 24 -29 45 -27 53 -39 54 -54 6 -6 -22 -16 -40 -20 -40 -21 0 -219 54 -352 96 -134 43 -148 49 -154 73 -8 32 -32 71 -44 71 -5 0 -12 -13 -16 -30 -4 -16 -11 -30 -16 -30 -16 0 -221 86 -297 124 -62 31 -70 39 -76 71 -8 39 -21 46 -31 15 -3 -11 -11 -20 -18 -20 -27 0 -314 176 -382 235 l-30 26 41 -20 c23 -11 98 -43 167 -70z m26 -520 c109 -28 418 -93 687 -146 481 -95 782 -160 797 -174 8 -8 -238 -51 -290 -51 -24 0 -37 8 -53 30 -27 38 -39 38 -47 -1 l-6 -31 -106 7 c-113 7 -273 28 -358 46 -40 9 -53 17 -57 34 -6 25 -43 75 -55 75 -5 0 -11 -17 -15 -39 l-6 -39 -87 25 c-49 13 -139 40 -201 59 -105 33 -114 37 -129 69 -20 41 -30 44 -39 11 l-6 -25 -51 20 c-104 41 -317 172 -370 227 l-28 29 111 -38 c61 -21 200 -61 309 -88z m47 -311 c274 -112 632 -183 1143 -226 116 -10 206 -21 199 -25 -18 -10 -223 -49 -257 -49 -15 0 -36 9 -46 20 -23 26 -35 25 -35 -2 0 -21 -2 -21 -122 -15 -109 5 -302 27 -380 43 -18 4 -28 12 -28 23 0 20 -43 64 -53 54 -4 -3 -7 -19 -7 -35 0 -15 -5 -28 -11 -28 -29 0 -206 67 -306 116 -84 41 -113 60 -113 74 0 22 -22 39 -28 22 -5 -15 -75 34 -128 90 l-39 40 56 -31 c30 -17 100 -49 155 -71z m-122 -470 c217 -37 389 -45 929 -44 284 0 517 -1 517 -3 0 -12 -118 -56 -199 -74 -73 -17 -98 -20 -112 -11 -25 16 -29 15 -29 -7 0 -16 -15 -21 -107 -35 -60 -10 -171 -20 -248 -22 l-140 -5 -20 33 c-25 41 -51 44 -47 6 3 -26 0 -28 -35 -28 -98 0 -403 64 -403 84 0 7 -9 21 -20 31 -19 18 -20 17 -20 -5 0 -19 -4 -21 -27 -16 -47 11 -206 94 -248 131 l-40 34 69 -25 c38 -14 119 -33 180 -44z m1506 -350 c-35 -28 -184 -101 -212 -103 -13 -2 -33 -8 -44 -14 -31 -18 -245 -59 -412 -79 l-142 -17 -23 21 c-30 28 -37 28 -37 -2 0 -28 6 -26 -185 -46 -115 -13 -274 -37 -301 -46 -11 -3 4 9 31 28 52 36 129 114 137 138 7 22 104 26 314 16 303 -15 599 19 799 92 97 36 107 37 75 12z"/>
<path d="M3995 8059 c-178 -16 -395 -49 -599 -90 -110 -22 -204 -43 -209 -46 -5 -3 40 -34 100 -70 225 -135 664 -442 883 -617 120 -97 274 -205 433 -305 l124 -77 69 7 c253 28 597 -10 879 -97 60 -19 156 -46 212 -61 96 -26 104 -27 145 -13 52 18 85 64 94 131 l7 49 108 0 109 0 0 -397 0 -398 186 -79 c226 -97 483 -225 584 -291 98 -64 200 -166 236 -235 15 -30 37 -91 49 -134 l20 -80 105 -22 c58 -13 126 -23 151 -23 32 -1 49 -6 53 -16 3 -8 12 -15 21 -15 27 0 277 -87 376 -130 52 -23 100 -44 108 -47 11 -5 13 16 8 123 -5 144 -21 213 -73 323 -81 174 -176 269 -396 400 -350 209 -521 363 -888 800 -257 307 -390 435 -588 568 -231 154 -598 300 -917 364 -219 44 -299 81 -540 254 -170 122 -282 184 -380 211 -73 19 -324 27 -470 13z m407 -124 c101 -22 137 -40 331 -169 94 -63 199 -128 232 -146 51 -27 55 -30 25 -24 -46 9 -162 56 -345 142 -250 118 -355 137 -767 137 l-288 0 68 17 c252 64 558 82 744 43z m-126 -170 c131 -22 230 -58 407 -147 175 -87 302 -134 393 -144 80 -9 104 -23 39 -24 -155 0 -361 45 -570 126 -306 118 -399 142 -580 151 -126 6 -128 7 -90 20 100 36 257 42 401 18z m144 -241 c96 -20 287 -82 464 -151 204 -79 277 -95 421 -96 l120 0 -95 -24 c-74 -19 -122 -24 -215 -25 -150 0 -206 14 -477 121 -112 44 -243 91 -293 105 -91 26 -245 55 -294 57 l-26 0 25 10 c76 31 229 32 370 3z m1248 -129 c230 -44 442 -155 669 -352 117 -102 421 -386 417 -391 -5 -8 -193 93 -261 140 -41 28 -128 101 -194 162 -319 294 -479 377 -848 440 -52 9 -97 19 -100 22 -10 12 231 -5 317 -21z m2126 -1663 c88 -58 193 -163 240 -241 46 -75 82 -179 96 -277 15 -111 16 -107 -27 -88 -71 31 -328 112 -438 138 l-110 26 92 -5 c90 -5 219 -29 316 -59 59 -18 64 -11 47 69 -27 130 -120 266 -303 441 l-122 117 70 -38 c39 -21 101 -58 139 -83z"/>
<path d="M4930 6540 c-247 -52 -478 -208 -593 -398 -88 -144 -151 -357 -166 -558 -9 -118 0 -336 18 -424 l9 -45 1 48 1 47 833 -2 832 -3 0 -100 0 -100 -155 -6 c-111 -4 -166 -10 -192 -22 -64 -27 -60 -42 113 -374 l91 -174 56 32 c134 75 291 197 440 343 l72 70 0 -207 0 -207 -77 -61 c-93 -74 -195 -143 -285 -193 -38 -21 -68 -38 -68 -39 0 -1 85 -166 189 -366 182 -350 190 -362 204 -340 32 53 618 1140 656 1218 55 114 69 181 48 226 -29 61 -137 95 -304 95 l-103 0 0 105 0 105 400 0 c455 0 410 -11 389 92 -42 197 -171 320 -514 488 -139 68 -457 210 -470 210 -3 0 -5 -38 -5 -85 l0 -85 -104 0 -104 0 -27 83 c-36 108 -104 237 -132 248 -67 25 -402 177 -617 280 -281 134 -278 133 -436 99z"/>
<path d="M5290 6555 c0 -8 501 -242 590 -277 24 -9 24 -9 -5 22 -45 48 -197 145 -282 180 -100 42 -303 92 -303 75z"/>
<path d="M7730 5062 l0 -49 -68 -12 c-64 -11 -172 -53 -172 -66 0 -16 67 -137 102 -185 l41 -55 -62 60 c-34 33 -76 82 -93 108 l-31 48 -44 -43 c-24 -24 -75 -90 -112 -148 -77 -118 -65 -96 -772 -1385 l-516 -940 -82 0 -82 0 -417 795 -418 795 -174 12 c-277 19 -451 52 -670 128 -111 39 -271 116 -354 170 l-51 34 -195 -50 c-736 -186 -1647 -282 -2259 -238 -79 5 -145 8 -147 6 -7 -6 97 -72 177 -113 243 -122 501 -169 1036 -190 170 -6 173 -7 173 -29 0 -31 -35 -72 -81 -95 -75 -39 -165 -51 -470 -65 -164 -7 -305 -17 -314 -22 -13 -8 -3 -16 52 -40 174 -78 379 -132 578 -154 142 -15 406 -6 638 21 98 12 184 19 190 17 7 -2 -3 -19 -23 -39 -64 -64 -215 -97 -525 -118 -88 -5 -171 -10 -185 -11 -38 -1 155 -75 300 -115 319 -88 593 -82 920 22 123 39 136 37 125 -21 -23 -130 -230 -195 -623 -195 -105 0 -222 2 -260 6 l-67 7 30 -32 c67 -72 263 -179 373 -204 52 -12 77 -11 292 19 325 46 449 56 637 52 l162 -3 -48 50 c-64 66 -95 118 -127 212 -24 69 -27 100 -33 260 -3 100 -9 184 -13 188 -17 17 -99 25 -286 25 l-203 0 -15 35 c-18 44 -18 158 0 218 32 108 92 145 296 187 74 15 168 42 209 59 49 21 90 31 122 31 l50 0 -15 -29 c-25 -47 -85 -91 -192 -141 -56 -26 -105 -53 -109 -60 -11 -17 22 -41 120 -90 80 -40 99 -44 345 -80 204 -29 391 -204 394 -367 0 -48 -3 -58 -27 -79 -38 -33 -111 -51 -252 -64 -161 -14 -205 -27 -205 -62 0 -30 225 -129 565 -249 83 -28 156 -57 163 -64 10 -9 10 -18 2 -39 -14 -37 -85 -67 -180 -75 l-75 -7 62 -41 c34 -22 92 -53 128 -69 70 -31 80 -49 46 -83 -24 -24 -116 -51 -173 -51 -57 0 -180 21 -368 64 -85 19 -184 38 -220 42 -61 6 -64 6 -50 -12 61 -74 191 -151 305 -179 69 -17 217 -35 291 -35 27 0 55 -5 62 -12 21 -21 14 -56 -15 -75 -24 -16 -51 -18 -213 -17 -152 1 -212 6 -334 28 -82 14 -153 26 -158 26 -17 0 -7 -40 19 -71 35 -41 149 -96 291 -139 61 -18 112 -39 112 -45 0 -17 -30 -42 -65 -55 -16 -6 -92 -16 -170 -22 -77 -6 -144 -15 -149 -19 -14 -12 46 -35 254 -96 413 -120 573 -183 623 -243 15 -18 26 -38 24 -44 -2 -7 -72 -13 -216 -16 l-213 -5 29 -21 c77 -57 182 -93 382 -129 75 -13 157 -32 182 -40 72 -25 82 -41 82 -138 1 -79 -1 -87 -39 -156 -37 -68 -43 -74 -91 -90 -80 -27 -160 -80 -227 -152 -117 -123 -143 -218 -87 -314 37 -63 119 -154 160 -178 l32 -19 -7 84 c-8 104 6 161 51 203 36 34 75 48 184 66 127 21 371 -22 515 -90 34 -16 91 -41 127 -54 108 -41 154 -75 223 -170 15 -20 34 -37 42 -37 44 0 -11 -100 -85 -155 -22 -17 -41 -34 -41 -39 0 -15 114 1 168 24 54 23 125 91 142 136 15 37 12 121 -4 153 -8 15 -33 44 -55 64 -22 20 -36 39 -31 42 5 3 64 8 132 11 245 13 352 -50 318 -184 -6 -26 -23 -66 -36 -90 l-25 -43 28 7 c87 21 146 87 187 208 15 45 15 53 1 105 -29 101 -98 197 -164 231 -23 11 -89 25 -171 35 -164 20 -229 37 -270 71 -47 40 -76 104 -46 104 7 0 40 13 72 30 51 26 63 28 87 19 26 -11 129 -7 188 7 24 5 27 1 60 -76 19 -45 39 -82 44 -82 6 0 25 35 44 78 41 94 55 229 28 280 -29 56 -62 77 -127 82 -84 6 -132 -9 -310 -93 -208 -99 -265 -117 -375 -122 -80 -3 -94 -1 -129 19 -27 15 -48 40 -65 73 -23 43 -26 62 -26 150 l0 100 74 175 c68 161 135 344 161 440 l10 39 43 -15 c67 -24 292 -81 407 -104 165 -32 322 -50 493 -57 154 -6 157 -6 140 -25 -32 -36 -179 -99 -280 -120 -75 -16 -135 -21 -256 -21 l-157 -1 32 -33 c75 -77 198 -96 583 -87 293 6 379 -1 456 -41 36 -19 32 -26 -29 -62 -46 -28 -51 -28 -249 -33 l-203 -5 -57 -45 -57 -44 34 -14 c52 -21 246 -17 392 9 169 30 340 30 422 0 33 -12 70 -28 83 -36 22 -15 22 -17 8 -45 -37 -72 -106 -89 -420 -100 -235 -8 -325 -19 -325 -40 0 -5 12 -17 28 -27 116 -80 403 -123 1127 -173 l290 -20 22 -27 c33 -40 46 -89 40 -142 -10 -80 -22 -101 -59 -101 -18 -1 -80 -5 -138 -10 -167 -15 -254 -69 -320 -199 -17 -35 -20 -53 -15 -90 7 -51 46 -145 73 -175 20 -22 101 -76 115 -76 6 0 7 42 3 108 -7 114 1 157 30 169 9 3 80 -4 158 -16 312 -48 497 -48 682 0 73 19 224 85 284 124 24 16 27 15 106 -32 45 -26 96 -56 113 -65 39 -21 77 -99 93 -189 l11 -63 25 50 c19 37 27 69 30 130 4 73 2 88 -22 135 -35 72 -67 124 -96 154 -25 27 -23 28 37 39 49 8 129 -10 212 -49 40 -19 85 -35 100 -35 46 0 67 -27 81 -103 8 -38 7 -76 0 -122 -6 -37 -9 -69 -7 -72 9 -9 96 89 116 131 62 127 30 330 -61 400 -46 35 -130 63 -231 76 -45 7 -83 13 -85 15 -8 8 87 55 130 64 95 22 230 -46 278 -138 l18 -36 11 40 c14 52 14 62 -4 122 -9 29 -32 69 -55 96 -22 25 -40 50 -40 55 0 20 -53 73 -93 93 -71 37 -121 50 -189 50 -96 0 -142 -23 -206 -104 -140 -175 -260 -239 -407 -216 -142 23 -215 75 -586 414 -413 378 -646 629 -739 795 -98 174 -254 374 -402 516 -176 169 -358 281 -545 335 l-63 18 -92 -40 c-356 -155 -580 -308 -700 -479 l-18 -25 10 29 c48 136 290 347 570 494 158 84 204 95 345 88 66 -3 183 -18 260 -32 126 -24 173 -28 465 -34 317 -7 393 -14 532 -50 103 -27 269 -102 356 -162 24 -16 102 -59 175 -95 73 -36 149 -81 171 -100 58 -52 169 -102 246 -109 l65 -7 -93 88 c-97 91 -133 142 -151 212 -21 79 37 153 119 153 92 0 286 -80 396 -163 109 -83 252 -255 270 -325 10 -35 34 -23 77 38 57 82 81 173 81 300 0 183 -64 350 -182 477 -29 31 -30 34 -25 111 11 155 -35 346 -122 510 -226 425 -793 862 -1490 1149 -112 47 -358 135 -407 147 -28 6 -28 6 -28 -42z m1140 -1020 c88 -43 199 -163 329 -356 75 -109 129 -179 155 -198 l41 -31 -57 6 c-36 3 -74 0 -104 -9 -136 -41 -271 15 -321 133 -17 41 -17 125 0 166 8 18 33 49 56 70 l42 38 -78 77 c-43 43 -105 92 -138 110 -60 33 -60 33 -20 27 22 -4 65 -19 95 -33z m-5876 -77 c40 -8 96 -23 125 -33 l52 -18 -338 -24 c-430 -32 -807 -33 -948 -3 l-90 19 200 6 c110 4 254 14 320 23 282 39 327 43 463 44 93 1 169 -4 216 -14z m140 -366 c-16 -17 -65 -48 -109 -69 -207 -101 -552 -133 -841 -78 l-69 13 65 2 c156 6 234 19 745 128 88 19 178 34 199 34 l40 1 -30 -31z m359 -346 c42 -10 77 -21 77 -24 0 -3 -17 -13 -37 -22 -137 -59 -411 -91 -604 -70 -49 5 -58 8 -39 14 14 4 44 7 66 8 52 1 188 37 319 85 55 20 109 34 120 31 11 -3 55 -13 98 -22z m579 -387 l28 -34 -68 -6 c-166 -15 -372 -40 -549 -67 -106 -16 -207 -29 -224 -29 -17 0 -65 15 -107 33 l-77 32 195 6 c203 6 327 21 570 69 193 38 199 38 232 -4z"/>
<path d="M9046 3725 c-49 -52 -28 -132 40 -161 36 -15 100 -19 107 -6 4 5 -98 171 -117 190 -3 2 -16 -8 -30 -23z"/>
<path d="M4220 5006 c0 -3 12 -42 26 -88 29 -90 92 -225 129 -274 l24 -31 103 23 c57 13 111 24 121 24 9 0 17 4 17 8 0 13 -99 183 -136 233 -38 52 -97 83 -179 94 -27 3 -62 9 -77 11 -16 3 -28 3 -28 0z"/>
<path d="M3387 4618 c-50 -26 -113 -43 -283 -73 -133 -24 -225 -49 -273 -75 -17 -9 -19 -15 -11 -30 17 -31 92 -69 171 -86 118 -26 346 -8 597 46 l53 12 -84 87 c-46 48 -92 99 -102 114 -20 31 -18 31 -68 5z"/>
<path d="M4562 4568 c-93 -30 -93 -30 -75 -50 29 -34 159 -115 218 -137 119 -45 116 -50 43 90 -35 68 -71 125 -79 126 -8 0 -56 -12 -107 -29z"/>
</g>
</svg>