<svg id="visual" viewBox="0 0 3000 100" width="3000" height="100" xmlns="http://www.w3.org/2000/svg" xmlns:xlink="http://www.w3.org/1999/xlink" version="1.1"><rect x="0" y="0" width="3000" height="100" fill="#001220"></rect><path d="M0 47L21.7 44C43.3 41 86.7 35 130.2 31.2C173.7 27.3 217.3 25.7 260.8 25.7C304.3 25.7 347.7 27.3 391.2 30.8C434.7 34.3 478.3 39.7 521.8 37.8C565.3 36 608.7 27 652.2 25.2C695.7 23.3 739.3 28.7 782.8 32.3C826.3 36 869.7 38 913 40.3C956.3 42.7 999.7 45.3 1043.2 43.7C1086.7 42 1130.3 36 1173.8 33.2C1217.3 30.3 1260.7 30.7 1304.2 33.7C1347.7 36.7 1391.3 42.3 1434.8 42C1478.3 41.7 1521.7 35.3 1565.2 34.5C1608.7 33.7 1652.3 38.3 1695.8 36.8C1739.3 35.3 1782.7 27.7 1826.2 28.2C1869.7 28.7 1913.3 37.3 1956.8 38.5C2000.3 39.7 2043.7 33.3 2087 28.7C2130.3 24 2173.7 21 2217.2 22.8C2260.7 24.7 2304.3 31.3 2347.8 34.2C2391.3 37 2434.7 36 2478.2 37.7C2521.7 39.3 2565.3 43.7 2608.8 42.8C2652.3 42 2695.7 36 2739.2 36.2C2782.7 36.3 2826.3 42.7 2869.8 40.5C2913.3 38.3 2956.7 27.7 2978.3 22.3L3000 17L3000 101L2978.3 101C2956.7 101 2913.3 101 2869.8 101C2826.3 101 2782.7 101 2739.2 101C2695.7 101 2652.3 101 2608.8 101C2565.3 101 2521.7 101 2478.2 101C2434.7 101 2391.3 101 2347.8 101C2304.3 101 2260.7 101 2217.2 101C2173.7 101 2130.3 101 2087 101C2043.7 101 2000.3 101 1956.8 101C1913.3 101 1869.7 101 1826.2 101C1782.7 101 1739.3 101 1695.8 101C1652.3 101 1608.7 101 1565.2 101C1521.7 101 1478.3 101 1434.8 101C1391.3 101 1347.7 101 1304.2 101C1260.7 101 1217.3 101 1173.8 101C1130.3 101 1086.7 101 1043.2 101C999.7 101 956.3 101 913 101C869.7 101 826.3 101 782.8 101C739.3 101 695.7 101 652.2 101C608.7 101 565.3 101 521.8 101C478.3 101 434.7 101 391.2 101C347.7 101 304.3 101 260.8 101C217.3 101 173.7 101 130.2 101C86.7 101 43.3 101 21.7 101L0 101Z" fill="#002233"></path><path d="M0 52L21.7 52.7C43.3 53.3 86.7 54.7 130.2 52.7C173.7 50.7 217.3 45.3 260.8 41.5C304.3 37.7 347.7 35.3 391.2 37C434.7 38.7 478.3 44.3 521.8 47.7C565.3 51 608.7 52 652.2 52.3C695.7 52.7 739.3 52.3 782.8 49.3C826.3 46.3 869.7 40.7 913 39C956.3 37.3 999.7 39.7 1043.2 39.7C1086.7 39.7 1130.3 37.3 1173.8 40C1217.3 42.7 1260.7 50.3 1304.2 53.8C1347.7 57.3 1391.3 56.7 1434.8 55.7C1478.3 54.7 1521.7 53.3 1565.2 51.3C1608.7 49.3 1652.3 46.7 1695.8 47.2C1739.3 47.7 1782.7 51.3 1826.2 52.2C1869.7 53 1913.3 51 1956.8 47.8C2000.3 44.7 2043.7 40.3 2087 38.7C2130.3 37 2173.7 38 2217.2 37.8C2260.7 37.7 2304.3 36.3 2347.8 35.5C2391.3 34.7 2434.7 34.3 2478.2 34C2521.7 33.7 2565.3 33.3 2608.8 35.5C2652.3 37.7 2695.7 42.3 2739.2 43.7C2782.7 45 2826.3 43 2869.8 42.7C2913.3 42.3 2956.7 43.7 2978.3 44.3L3000 45L3000 101L2978.3 101C2956.7 101 2913.3 101 2869.8 101C2826.3 101 2782.7 101 2739.2 101C2695.7 101 2652.3 101 2608.8 101C2565.3 101 2521.7 101 2478.2 101C2434.7 101 2391.3 101 2347.8 101C2304.3 101 2260.7 101 2217.2 101C2173.7 101 2130.3 101 2087 101C2043.7 101 2000.3 101 1956.8 101C1913.3 101 1869.7 101 1826.2 101C1782.7 101 1739.3 101 1695.8 101C1652.3 101 1608.7 101 1565.2 101C1521.7 101 1478.3 101 1434.8 101C1391.3 101 1347.7 101 1304.2 101C1260.7 101 1217.3 101 1173.8 101C1130.3 101 1086.7 101 1043.2 101C999.7 101 956.3 101 913 101C869.7 101 826.3 101 782.8 101C739.3 101 695.7 101 652.2 101C608.7 101 565.3 101 521.8 101C478.3 101 434.7 101 391.2 101C347.7 101 304.3 101 260.8 101C217.3 101 173.7 101 130.2 101C86.7 101 43.3 101 21.7 101L0 101Z" fill="#133058"></path><path d="M0 51L21.7 53.8C43.3 56.7 86.7 62.3 130.2 63.8C173.7 65.3 217.3 62.7 260.8 62.2C304.3 61.7 347.7 63.3 391.2 62.2C434.7 61 478.3 57 521.8 57.8C565.3 58.7 608.7 64.3 652.2 63C695.7 61.7 739.3 53.3 782.8 51.2C826.3 49 869.7 53 913 54.5C956.3 56 999.7 55 1043.2 53.7C1086.7 52.3 1130.3 50.7 1173.8 51.3C1217.3 52 1260.7 55 1304.2 54.8C1347.7 54.7 1391.3 51.3 1434.8 49.5C1478.3 47.7 1521.7 47.3 1565.2 50C1608.7 52.7 1652.3 58.3 1695.8 61.3C1739.3 64.3 1782.7 64.7 1826.2 61.8C1869.7 59 1913.3 53 1956.8 51.2C2000.3 49.3 2043.7 51.7 2087 53.3C2130.3 55 2173.7 56 2217.2 55.2C2260.7 54.3 2304.3 51.7 2347.8 52C2391.3 52.3 2434.7 55.7 2478.2 56.2C2521.7 56.7 2565.3 54.3 2608.8 55.5C2652.3 56.7 2695.7 61.3 2739.2 63.7C2782.7 66 2826.3 66 2869.8 63.8C2913.3 61.7 2956.7 57.3 2978.3 55.2L3000 53L3000 101L2978.3 101C2956.7 101 2913.3 101 2869.8 101C2826.3 101 2782.7 101 2739.2 101C2695.7 101 2652.3 101 2608.8 101C2565.3 101 2521.7 101 2478.2 101C2434.7 101 2391.3 101 2347.8 101C2304.3 101 2260.7 101 2217.2 101C2173.7 101 2130.3 101 2087 101C2043.7 101 2000.3 101 1956.8 101C1913.3 101 1869.7 101 1826.2 101C1782.7 101 1739.3 101 1695.8 101C1652.3 101 1608.7 101 1565.2 101C1521.7 101 1478.3 101 1434.8 101C1391.3 101 1347.7 101 1304.2 101C1260.7 101 1217.3 101 1173.8 101C1130.3 101 1086.7 101 1043.2 101C999.7 101 956.3 101 913 101C869.7 101 826.3 101 782.8 101C739.3 101 695.7 101 652.2 101C608.7 101 565.3 101 521.8 101C478.3 101 434.7 101 391.2 101C347.7 101 304.3 101 260.8 101C217.3 101 173.7 101 130.2 101C86.7 101 43.3 101 21.7 101L0 101Z" fill="#4d3774"></path><path d="M0 78L21.7 77.3C43.3 76.7 86.7 75.3 130.2 73.2C173.7 71 217.3 68 260.8 66.7C304.3 65.3 347.7 65.7 391.2 66.3C434.7 67 478.3 68 521.8 69.7C565.3 71.3 608.7 73.7 652.2 73.5C695.7 73.3 739.3 70.7 782.8 68C826.3 65.3 869.7 62.7 913 63.3C956.3 64 999.7 68 1043.2 68.8C1086.7 69.7 1130.3 67.3 1173.8 66C1217.3 64.7 1260.7 64.3 1304.2 64C1347.7 63.7 1391.3 63.3 1434.8 64.5C1478.3 65.7 1521.7 68.3 1565.2 68.3C1608.7 68.3 1652.3 65.7 1695.8 66.2C1739.3 66.7 1782.7 70.3 1826.2 72.3C1869.7 74.3 1913.3 74.7 1956.8 74C2000.3 73.3 2043.7 71.7 2087 70.7C2130.3 69.7 2173.7 69.3 2217.2 69.5C2260.7 69.7 2304.3 70.3 2347.8 70.2C2391.3 70 2434.7 69 2478.2 69.7C2521.7 70.3 2565.3 72.7 2608.8 73C2652.3 73.3 2695.7 71.7 2739.2 71.3C2782.7 71 2826.3 72 2869.8 72.2C2913.3 72.3 2956.7 71.7 2978.3 71.3L3000 71L3000 101L2978.3 101C2956.7 101 2913.3 101 2869.8 101C2826.3 101 2782.7 101 2739.2 101C2695.7 101 2652.3 101 2608.8 101C2565.3 101 2521.7 101 2478.2 101C2434.7 101 2391.3 101 2347.8 101C2304.3 101 2260.7 101 2217.2 101C2173.7 101 2130.3 101 2087 101C2043.7 101 2000.3 101 1956.8 101C1913.3 101 1869.7 101 1826.2 101C1782.7 101 1739.3 101 1695.8 101C1652.3 101 1608.7 101 1565.2 101C1521.7 101 1478.3 101 1434.8 101C1391.3 101 1347.7 101 1304.2 101C1260.7 101 1217.3 101 1173.8 101C1130.3 101 1086.7 101 1043.2 101C999.7 101 956.3 101 913 101C869.7 101 826.3 101 782.8 101C739.3 101 695.7 101 652.2 101C608.7 101 565.3 101 521.8 101C478.3 101 434.7 101 391.2 101C347.7 101 304.3 101 260.8 101C217.3 101 173.7 101 130.2 101C86.7 101 43.3 101 21.7 101L0 101Z" fill="#8d317b"></path><path d="M0 80L21.7 80.5C43.3 81 86.7 82 130.2 82C173.7 82 217.3 81 260.8 80.7C304.3 80.3 347.7 80.7 391.2 81.3C434.7 82 478.3 83 521.8 83C565.3 83 608.7 82 652.2 81.8C695.7 81.7 739.3 82.3 782.8 83.7C826.3 85 869.7 87 913 85.5C956.3 84 999.7 79 1043.2 77.2C1086.7 75.3 1130.3 76.7 1173.8 76.7C1217.3 76.7 1260.7 75.3 1304.2 75.3C1347.7 75.3 1391.3 76.7 1434.8 78.8C1478.3 81 1521.7 84 1565.2 86C1608.7 88 1652.3 89 1695.8 87.2C1739.3 85.3 1782.7 80.7 1826.2 79.5C1869.7 78.3 1913.3 80.7 1956.8 82.3C2000.3 84 2043.7 85 2087 86C2130.3 87 2173.7 88 2217.2 87.5C2260.7 87 2304.3 85 2347.8 83.3C2391.3 81.7 2434.7 80.3 2478.2 80.7C2521.7 81 2565.3 83 2608.8 84.5C2652.3 86 2695.7 87 2739.2 87.8C2782.7 88.7 2826.3 89.3 2869.8 89.8C2913.3 90.3 2956.7 90.7 2978.3 90.8L3000 91L3000 101L2978.3 101C2956.7 101 2913.3 101 2869.8 101C2826.3 101 2782.7 101 2739.2 101C2695.7 101 2652.3 101 2608.8 101C2565.3 101 2521.7 101 2478.2 101C2434.7 101 2391.3 101 2347.8 101C2304.3 101 2260.7 101 2217.2 101C2173.7 101 2130.3 101 2087 101C2043.7 101 2000.3 101 1956.8 101C1913.3 101 1869.7 101 1826.2 101C1782.7 101 1739.3 101 1695.8 101C1652.3 101 1608.7 101 1565.2 101C1521.7 101 1478.3 101 1434.8 101C1391.3 101 1347.7 101 1304.2 101C1260.7 101 1217.3 101 1173.8 101C1130.3 101 1086.7 101 1043.2 101C999.7 101 956.3 101 913 101C869.7 101 826.3 101 782.8 101C739.3 101 695.7 101 652.2 101C608.7 101 565.3 101 521.8 101C478.3 101 434.7 101 391.2 101C347.7 101 304.3 101 260.8 101C217.3 101 173.7 101 130.2 101C86.7 101 43.3 101 21.7 101L0 101Z" fill="#c62368"></path></svg>